    <svg version="1.1" xmlns="http://www.w3.org/2000/svg" style="display: none;">
        <symbol id="experience" viewBox="0 0 100 100">
            <path d="M93.7,61.2l-8-4.6c0.8-4.4,0.8-8.9,0-13.2l8-4.6c0.9-0.5,1.3-1.6,1-2.6c-2.1-6.7-5.7-12.8-10.3-17.9c-0.7-0.8-1.9-1-2.8-0.4
        	l-8,4.6c-3.4-2.9-7.3-5.2-11.5-6.6V6.5c0-1.1-0.7-2-1.8-2.2c-6.9-1.5-14-1.5-20.6,0c-1,0.2-1.8,1.2-1.8,2.2v9.3
        	c-4.2,1.5-8.1,3.7-11.5,6.6l-8-4.6c-0.9-0.5-2.1-0.4-2.8,0.4c-4.7,5-8.2,11.1-10.3,17.9c-0.3,1,0.1,2.1,1,2.6l8,4.6
        	c-0.8,4.4-0.8,8.9,0,13.2l-8,4.6c-0.9,0.5-1.3,1.6-1,2.6c2.1,6.7,5.7,12.8,10.3,17.9c0.7,0.8,1.9,1,2.8,0.4l8-4.6
        	c3.4,2.9,7.3,5.2,11.5,6.6v9.3c0,1.1,0.7,2,1.8,2.2c6.9,1.5,14,1.5,20.6,0c1-0.2,1.8-1.2,1.8-2.2v-9.3c4.2-1.5,8.1-3.7,11.5-6.6
        	l8,4.6c0.9,0.5,2.1,0.4,2.8-0.4c4.7-5,8.2-11.1,10.3-17.9C95,62.9,94.6,61.8,93.7,61.2z M50,65.1c-8.3,0-15.1-6.8-15.1-15.1
        	S41.7,34.9,50,34.9S65.1,41.7,65.1,50S58.3,65.1,50,65.1z" />
        </symbol>
    </svg>