<?xml version="1.0" standalone="no"?>
<!DOCTYPE svg PUBLIC "-//W3C//DTD SVG 20010904//EN"
 "http://www.w3.org/TR/2001/REC-SVG-20010904/DTD/svg10.dtd">
<svg version="1.0" xmlns="http://www.w3.org/2000/svg"
 width="391.000000pt" height="391.000000pt" viewBox="0 0 391.000000 391.000000"
 preserveAspectRatio="xMidYMid meet">
<metadata>
Created by potrace 1.11, written by Peter Selinger 2001-2013
</metadata>
<g transform="translate(0.000000,391.000000) scale(0.100000,-0.100000)"
fill="#000000" stroke="none">
<path d="M1770 3899 c-213 -25 -267 -38 -296 -70 -20 -22 -23 -65 -24 -345 l0
-101 -67 -28 c-127 -53 -280 -144 -384 -226 l-27 -21 -174 101 c-120 69 -185
101 -206 101 -40 0 -84 -38 -166 -144 -129 -166 -206 -300 -281 -487 -52 -128
-64 -194 -42 -223 8 -11 92 -65 188 -121 194 -113 179 -94 165 -215 -10 -80
-10 -235 -1 -327 4 -37 8 -78 9 -91 1 -20 -23 -37 -164 -118 -177 -102 -210
-129 -210 -174 0 -77 124 -352 234 -520 123 -187 219 -290 270 -290 19 0 91
38 266 139 58 34 108 61 113 61 5 0 34 -20 65 -44 83 -64 202 -133 309 -182
52 -23 97 -45 100 -48 3 -3 5 -94 5 -203 0 -211 5 -238 50 -261 79 -40 499
-72 648 -49 19 3 58 9 85 12 144 19 187 33 210 69 14 21 17 58 17 230 l1 205
51 21 c139 59 357 188 395 234 7 9 20 16 27 16 8 0 74 -35 147 -77 225 -131
214 -126 252 -119 32 6 53 24 116 96 35 41 123 161 163 224 108 170 226 459
207 509 -11 29 -40 58 -79 78 -27 14 -295 169 -298 172 -1 1 3 37 10 80 17
105 13 334 -8 461 -1 9 102 73 217 135 107 58 138 82 153 116 7 19 12 40 10
47 -80 251 -215 500 -369 683 -112 133 -121 134 -296 31 -69 -40 -148 -85
-174 -100 l-48 -26 -57 43 c-117 89 -257 168 -374 212 l-48 18 0 208 c0 206 0
208 -25 237 -27 32 -71 44 -250 68 -69 9 -348 11 -415 3z m300 -1325 c82 -14
188 -60 260 -113 112 -83 204 -223 236 -356 75 -318 -101 -633 -413 -742 -69
-24 -92 -27 -203 -27 -109 1 -134 4 -192 26 -162 61 -289 171 -358 310 -51
104 -68 178 -68 290 0 172 57 307 183 434 111 113 219 164 395 187 30 4 112
-1 160 -9z"/>
</g>
</svg>
